# xmcd CD database file
#
# Track frame offsets:
#	150
#	16503
#	30743
#	47480
#	61598
#	80735
#	93905
#	112083
#	132883
#	148693
#
# Disc length: 2174 seconds
#
# Revision: 1
# Processed by: cddbd v1.4PL0 Copyright (c) Steve Scherf et al.
# Submitted via: CDex 1.40Release
#
DISCID=78087c0a
DTITLE=Vince Gill - When I Call Your Name
DYEAR=1989
DGENRE=Country
TTITLE0=Never Alone
TTITLE1=Sight For Sore Eyes
TTITLE2=Oh Girl (You Know Where To Find Me)
TTITLE3=Oklahoma Swing (with Reba McEntire)
TTITLE4=When I Call Your Name
TTITLE5=Ridin' The Rodeo
TTITLE6=Never Knew Lonely
TTITLE7=We Won't Dance
TTITLE8=We Could Have Been
TTITLE9=Rita Ballou
EXTD=MCA Records YEAR: 1989 ID3G: 2
EXTT0=
EXTT1=
EXTT2=
EXTT3=
EXTT4=
EXTT5=
EXTT6=
EXTT7=
EXTT8=
EXTT9=
PLAYORDER=
